<?xml version="1.0" encoding="utf-8"?>
<!-- Generator: Adobe Illustrator 18.0.0, SVG Export Plug-In . SVG Version: 6.00 Build 0)  -->
<!DOCTYPE svg PUBLIC "-//W3C//DTD SVG 1.1//EN" "http://www.w3.org/Graphics/SVG/1.1/DTD/svg11.dtd">
<svg version="1.1" id="Layer_1" xmlns="http://www.w3.org/2000/svg" xmlns:xlink="http://www.w3.org/1999/xlink" x="0px" y="0px"
	 viewBox="0 0 512.2 512.2" enable-background="new 0 0 512.2 512.2" xml:space="preserve">
<g>
	<circle fill="#1F140F" cx="109.5" cy="316.6" r="34"/>
	<circle fill="#1F140F" cx="340.4" cy="316.6" r="34"/>
	<path fill="none" d="M267.9,278.2c0,0.1,0,0.2,0,0.3h184.7c-2.2-49.9-13.5-86.2-33.9-109c-20.5-22.8-44.7-34.2-72.7-34.2
		c-6.7,0-13.1,0.5-19.2,1.6v141.3H267.9z"/>
	<path fill="none" d="M98.7,347.2c10.6,18.9,28.2,28.4,53,28.4c24.6,0,43.3-10.9,56.2-32.6c6.9-11.6,11.8-26.3,14.9-43.9H86.5
		C88.8,320.6,92.9,336.7,98.7,347.2z"/>
	<path fill="none" d="M327.2,347.2c10.6,18.9,28.2,28.4,53,28.4c24.6,0,43.3-10.9,56.2-32.6c6.9-11.6,11.8-26.3,14.9-43.9H314.9
		C317.3,320.6,321.4,336.7,327.2,347.2z"/>
	<circle fill="#FFFFFF" cx="123.3" cy="311.1" r="10.2"/>
	<circle fill="#FFFFFF" cx="354.2" cy="311.1" r="10.2"/>
	<path fill="#339832" d="M500.2,512.2H12c-6.6,0-12-5.4-12-12V12C0,5.4,5.4,0,12,0h488.2c6.6,0,12,5.4,12,12v488.2
		C512.2,506.8,506.8,512.2,500.2,512.2z"/>
	<path d="M466.9,134.3c-22.1-30.6-53.4-45.9-93.8-45.9c-16.7,0-32.1,2.7-46.3,7.9v40.5c6.1-1,12.5-1.6,19.2-1.6
		c28,0,52.2,11.4,72.7,34.2c20.5,22.8,31.8,59.1,33.9,109H267.9c0-0.1,0-0.2,0-0.3h-43.9c0,0.1,0,0.2,0,0.3H18.9
		c0,38.6,11.4,68.3,34.2,89.3c22.8,21,49.4,31.5,79.8,31.5c41.1,0,74.5-15.7,100.1-47.2c7.9-9.7,14.6-20,20.1-30.8
		c5.5,18.5,15,34.1,28.5,46.5c22.8,21,49.4,31.5,79.8,31.5c41.1,0,74.5-15.7,100.2-47.2c25.6-31.4,38.4-68.8,38.4-112.1
		C500.1,200.1,489,164.9,466.9,134.3z M207.9,343c-12.9,21.8-31.7,32.6-56.2,32.6c-24.8,0-42.4-9.5-53-28.4
		c-5.8-10.6-9.9-26.6-12.3-48.1h136.3C219.8,316.8,214.8,331.4,207.9,343z M436.4,343c-12.9,21.8-31.7,32.6-56.2,32.6
		c-24.8,0-42.4-9.5-53-28.4c-5.8-10.6-9.9-26.6-12.3-48.1h136.3C448.3,316.8,443.3,331.4,436.4,343z"/>
	<text transform="matrix(1.0149 0 0 1 19.0658 200.9642)" fill="#1F140F" font-family="'HelveticaNeue'" font-size="64.6728">TELECOM</text>
	<text transform="matrix(1.0871 0 0 1 15.3262 267.2225)"><tspan x="0" y="0" fill="#1F140F" font-family="'HelveticaNeue'" font-size="75.7595">REV</tspan><tspan x="144.5" y="0" fill="#F09700" font-family="'HelveticaNeue'" font-size="75.7595">E</tspan><tspan x="190.8" y="0" fill="#1F140F" font-family="'HelveticaNeue'" font-size="75.7595">ALED</tspan></text>
	<line fill="none" stroke="#1F140F" stroke-miterlimit="10" x1="18.9" y1="278.4" x2="452.6" y2="278.4"/>
	<circle fill="#1F140F" cx="112.3" cy="316.6" r="34"/>
	<circle fill="#1F140F" cx="343.2" cy="316.6" r="34"/>
	<circle fill="#FFFFFF" cx="126.2" cy="311.1" r="10.2"/>
	<circle fill="#FFFFFF" cx="357" cy="311.1" r="10.2"/>
</g>
</svg>
